<svg id="Logo" xmlns="http://www.w3.org/2000/svg" width="144" height="144" viewBox="0 0 144 144">
  <metadata><?xpacket begin="﻿" id="W5M0MpCehiHzreSzNTczkc9d"?>
<x:xmpmeta xmlns:x="adobe:ns:meta/" x:xmptk="Adobe XMP Core 5.6-c138 79.159824, 2016/09/14-01:09:01        ">
   <rdf:RDF xmlns:rdf="http://www.w3.org/1999/02/22-rdf-syntax-ns#">
      <rdf:Description rdf:about=""/>
   </rdf:RDF>
</x:xmpmeta>
                                                                                                    
                                                                                                    
                                                                                                    
                                                                                                    
                                                                                                    
                                                                                                    
                                                                                                    
                                                                                                    
                                                                                                    
                                                                                                    
                                                                                                    
                                                                                                    
                                                                                                    
                                                                                                    
                                                                                                    
                                                                                                    
                                                                                                    
                                                                                                    
                                                                                                    
                                                                                                    
                           
<?xpacket end="w"?></metadata>
<defs>
    <style>
      .cls-1, .cls-2 {
        fill-rule: evenodd;
      }

      .cls-1 {
        opacity: 0.25;
      }

      .cls-2 {
        fill: #fff;
      }
    </style>
  </defs>
  <path id="Logo-2" data-name="Logo" class="cls-1" d="M54.246,39.827c6.1,0,8.1-5.383,8.1-8.227,0-2.539.1-2.539-1.4-3.25-0.1-3.047-2.2-4.368-4.7-4.368-4.8,0-6,7.618-6,10.157C50.248,38.2,52.747,39.827,54.246,39.827Zm-4.6,14.931c-1.3,22.956-4.7,59.014-8.7,62.468a35.515,35.515,0,0,1-9.7-3.961c-3.8.609-4.3,6.094-.7,7.516a37.358,37.358,0,0,0,11.894,1.93c12.594,0,13.094-46.521,16.592-71.2a11.612,11.612,0,0,0-7-2.336C49.848,49.172,49.848,51.712,49.648,54.759ZM77.534,67.151c-0.7,8.024-1.1,17.572-1,26,0.1,7.719.9,12.087,5.4,12.087a4.8,4.8,0,0,0,3.4-1.523c-0.1-9.548,4.6-28.543,8.7-37.583h1.2c-1,5.18-3,15.744-3,20.112,0,8.228,1.9,15.541,8.7,15.541,7,0,11.294-7.822,11.294-12.189a2.538,2.538,0,0,0-2.2-2.743c-0.8,2.641-2.8,8.024-6.1,8.024-2.8,0-4.1-2.539-4.1-7.72,0-11.376,5.3-26.714,6.1-37.075,0.3-3.25-4.3-5.079-7-5.079-0.9,0-1.8,0-2.2.914-5.6,10.97-8.9,23.972-12.694,35.246h-0.4c0.2-8.024,1.8-19.3,2.4-26.511,0.3-3.25-3.7-4.571-6.4-4.571-0.9,0-1.8,0-2.2.914-3.1,7.517-6.6,17.979-10.4,29.253h-0.4c0-6.6,3.1-19.6,5.1-29.66,0.3-1.524-2.9-3.555-6-3.555-2.3,0-7,24.479-7,42.052,0,8.329,2.2,13.205,6.7,13.205a4.8,4.8,0,0,0,3.4-1.524c-0.1-9.548,4.7-24.683,7.8-33.621h0.9Z"/>
  <path id="Logo_Kopie" data-name="Logo Kopie" class="cls-2" d="M54.246,35.827c6.1,0,8.1-5.383,8.1-8.227,0-2.539.1-2.539-1.4-3.25-0.1-3.047-2.2-4.368-4.7-4.368-4.8,0-6,7.618-6,10.157C50.248,34.2,52.747,35.827,54.246,35.827Zm-4.6,14.931c-1.3,22.956-4.7,59.014-8.7,62.468a35.515,35.515,0,0,1-9.7-3.961c-3.8.609-4.3,6.094-.7,7.516a37.358,37.358,0,0,0,11.894,1.93c12.594,0,13.094-46.521,16.592-71.2a11.612,11.612,0,0,0-7-2.336C49.848,45.172,49.848,47.712,49.648,50.759ZM77.534,63.151c-0.7,8.024-1.1,17.572-1,26,0.1,7.72.9,12.087,5.4,12.087a4.8,4.8,0,0,0,3.4-1.523c-0.1-9.548,4.6-28.542,8.7-37.582h1.2c-1,5.18-3,15.744-3,20.112,0,8.228,1.9,15.541,8.7,15.541,7,0,11.294-7.821,11.294-12.189a2.538,2.538,0,0,0-2.2-2.743c-0.8,2.641-2.8,8.024-6.1,8.024-2.8,0-4.1-2.539-4.1-7.72,0-11.376,5.3-26.714,6.1-37.075,0.3-3.25-4.3-5.079-7-5.079-0.9,0-1.8,0-2.2.914-5.6,10.97-8.9,23.972-12.694,35.246h-0.4c0.2-8.024,1.8-19.3,2.4-26.511,0.3-3.25-3.7-4.571-6.4-4.571-0.9,0-1.8,0-2.2.914-3.1,7.517-6.6,17.979-10.4,29.253h-0.4c0-6.6,3.1-19.6,5.1-29.66,0.3-1.524-2.9-3.555-6-3.555-2.3,0-7,24.479-7,42.052,0,8.329,2.2,13.2,6.7,13.2a4.8,4.8,0,0,0,3.4-1.524c-0.1-9.548,4.7-24.683,7.8-33.621h0.9Z"/>
</svg>
