<?xml version="1.0" standalone="no"?>
<!DOCTYPE svg PUBLIC "-//W3C//DTD SVG 20010904//EN"
 "http://www.w3.org/TR/2001/REC-SVG-20010904/DTD/svg10.dtd">
<svg version="1.0" xmlns="http://www.w3.org/2000/svg"
 width="16.000000pt" height="16.000000pt" viewBox="0 0 16.000000 16.000000"
 preserveAspectRatio="xMidYMid meet">
<metadata>
Created by potrace 1.11, written by Peter Selinger 2001-2013
</metadata>
<g transform="translate(0.000000,16.000000) scale(0.004040,-0.004040)"
fill="#000000" stroke="none">
<path d="M1343 3930 c-94 -48 -165 -227 -159 -402 2 -65 7 -84 32 -125 51 -83
114 -102 227 -69 133 39 217 167 219 335 1 74 -7 91 -45 104 -5 1 -11 14 -12
29 -5 44 -34 92 -69 116 -51 35 -138 40 -193 12z"/>
<path d="M3068 3103 c-47 -12 -227 -464 -383 -958 -106 -339 -157 -485 -165
-480 -5 3 -7 15 -5 28 2 12 6 76 10 142 3 66 8 134 10 150 2 17 7 59 10 95 3
36 8 79 10 95 2 17 7 64 10 105 4 41 9 82 10 90 2 8 6 49 10 90 4 41 9 89 11
105 14 113 16 203 4 226 -33 63 -118 106 -226 114 -73 4 -91 -5 -116 -63 -10
-26 -23 -56 -28 -67 -31 -67 -180 -487 -307 -864 -65 -191 -92 -249 -87 -184
7 95 16 185 19 205 3 13 8 43 11 68 3 25 8 54 10 65 2 11 9 47 14 80 9 50 28
147 74 378 12 55 18 84 42 198 39 189 40 191 7 224 -36 36 -116 73 -176 81
-44 6 -47 5 -67 -27 -20 -33 -75 -196 -84 -252 -3 -15 -7 -35 -10 -45 -3 -9
-7 -28 -10 -42 -2 -14 -9 -45 -15 -70 -5 -25 -12 -61 -16 -80 -3 -19 -7 -46
-10 -60 -8 -43 -31 -189 -40 -260 -3 -25 -8 -52 -10 -60 -2 -8 -6 -44 -10 -80
-3 -36 -7 -75 -9 -85 -2 -11 -7 -63 -11 -115 -4 -52 -9 -111 -12 -130 -2 -19
-6 -146 -8 -281 -3 -215 -1 -258 16 -334 43 -198 120 -285 252 -285 38 0 109
30 123 51 3 6 8 41 10 78 4 91 19 214 39 311 3 14 8 41 11 60 13 77 88 368
124 485 38 124 132 410 136 417 3 4 12 4 20 1 13 -5 15 -17 10 -67 -6 -62 -13
-161 -22 -316 -3 -47 -7 -245 -9 -440 -4 -395 5 -503 51 -597 39 -82 122 -118
210 -94 72 21 85 39 89 133 5 87 12 169 19 203 2 11 7 43 10 70 4 28 19 106
32 175 14 69 27 136 30 150 3 14 16 70 30 125 14 55 30 118 35 140 49 198 171
540 199 555 28 15 40 -2 30 -45 -5 -22 -11 -56 -15 -75 -3 -19 -8 -46 -10 -60
-10 -49 -15 -75 -20 -110 -3 -20 -7 -47 -10 -60 -3 -13 -7 -42 -10 -65 -3 -22
-8 -47 -10 -55 -4 -15 -8 -41 -22 -145 -15 -110 -9 -372 11 -465 34 -163 108
-276 208 -319 72 -30 192 -24 273 14 71 34 178 136 218 209 47 84 75 176 72
238 -2 61 -13 81 -56 104 -27 14 -28 13 -39 -24 -6 -20 -30 -74 -52 -120 -42
-85 -111 -161 -149 -163 -72 -5 -90 0 -124 34 -92 92 -94 368 -4 822 26 134
22 113 72 345 62 280 96 473 102 575 4 65 -24 116 -84 154 -76 48 -186 72
-253 54z"/>
<path d="M1218 2934 c-42 -22 -54 -69 -63 -234 -3 -58 -8 -125 -10 -150 -2
-25 -7 -90 -10 -145 -9 -144 -14 -222 -20 -285 -5 -61 -12 -149 -20 -237 -9
-119 -16 -188 -20 -218 -2 -16 -7 -61 -10 -100 -3 -38 -8 -81 -10 -95 -2 -14
-6 -56 -10 -95 -3 -38 -8 -81 -10 -95 -3 -14 -7 -45 -9 -70 -3 -25 -8 -64 -11
-87 -3 -24 -7 -60 -10 -80 -2 -21 -7 -56 -10 -78 -4 -22 -8 -53 -11 -70 -2
-16 -6 -41 -9 -55 -2 -14 -7 -43 -10 -65 -43 -296 -119 -549 -165 -551 -27 -1
-212 68 -301 112 -96 49 -112 49 -160 0 -60 -59 -56 -170 7 -226 29 -25 91
-50 160 -64 11 -3 42 -9 69 -16 69 -16 154 -24 260 -24 105 -1 133 10 202 82
66 68 164 286 198 439 2 10 13 61 25 113 12 52 23 104 26 115 2 11 6 33 10 48
3 16 7 38 9 50 2 12 10 67 18 122 9 55 19 123 23 150 3 28 8 58 9 67 2 9 7 48
10 85 4 37 8 75 10 83 2 8 7 47 10 85 4 39 8 81 10 95 2 14 9 75 15 135 5 61
12 130 15 155 2 25 7 74 10 110 4 36 8 81 10 100 2 19 6 71 10 115 3 44 8 91
10 105 2 14 6 57 10 95 3 39 10 104 15 145 5 41 12 102 15 135 4 33 8 71 10
85 2 14 7 50 10 80 l6 56 -39 22 c-57 31 -117 51 -176 58 -28 3 -56 7 -61 9
-6 1 -22 -3 -37 -11z"/>
</g>
</svg>
